<mxfile host="Electron" modified="2024-01-14T12:01:04.155Z" agent="Mozilla/5.0 (X11; Linux x86_64) AppleWebKit/537.36 (KHTML, like Gecko) draw.io/21.5.1 Chrome/112.0.5615.204 Electron/24.6.0 Safari/537.36" etag="pOFI-yX6AKHCIAKGZyxc" version="21.5.1" type="device">
  <diagram name="Page-1" id="PCO_Dsy0DcMmW6lmykrr">
    <mxGraphModel dx="810" dy="531" grid="1" gridSize="10" guides="1" tooltips="1" connect="1" arrows="1" fold="1" page="1" pageScale="1" pageWidth="1169" pageHeight="827" math="0" shadow="0">
      <root>
        <mxCell id="0" />
        <mxCell id="1" parent="0" />
        <mxCell id="4lTlK-eCGsVboTaURag3-1" value="&lt;blockquote style=&quot;margin: 0 0 0 40px; border: none; padding: 0px;&quot;&gt;&lt;b&gt;&lt;font style=&quot;font-size: 14px;&quot;&gt;Keycloak&lt;/font&gt;&lt;/b&gt;&lt;/blockquote&gt;" style="rounded=1;whiteSpace=wrap;html=1;" parent="1" vertex="1">
          <mxGeometry x="628" y="337" width="210" height="80" as="geometry" />
        </mxCell>
        <mxCell id="4lTlK-eCGsVboTaURag3-3" value="" style="shape=image;imageAspect=0;aspect=fixed;verticalLabelPosition=bottom;verticalAlign=top;image=data:image/svg+xml,PHN2ZyB4bWxucz0iaHR0cDovL3d3dy53My5vcmcvMjAwMC9zdmciIHZpZXdCb3g9IjAgMCAzNjAgMzYwIiBkYXRhLW5hbWU9IkxheWVyIDEiIGlkPSJMYXllcl8xIj48ZGVmcz48c3R5bGU+LmNscy0xe2ZpbGw6IzA2ZWQ5NDt9LmNscy0ye2ZpbGw6IzA1OWI2MTt9LmNscy0ze2ZpbGw6IzE5NTdiYTt9LmNscy00e2ZpbGw6IzZjYThmZjt9PC9zdHlsZT48L2RlZnM+PHRpdGxlPk9BdXRoMl9Qcm94eV9sb2dvX3YzPC90aXRsZT48cGF0aCBkPSJNMTc5LjAwMjA1LDM0OS43MjhjLTkzLjY5NDgzLDAtMTY5LjkyMS03Ni4yMjY4Ny0xNjkuOTIxLTE2OS45MjE3Uzg1LjMwNzIyLDkuODg0NjIsMTc5LjAwMjA1LDkuODg0NjJjOTMuNjk0MDgsMCwxNjkuOTIwMjEsNzYuMjI2ODcsMTY5LjkyMDIxLDE2OS45MjE3UzI3Mi42OTYxMywzNDkuNzI4LDE3OS4wMDIwNSwzNDkuNzI4Wm0wLTMyNy44MTU4MWMtODcuMDYyMzgsMC0xNTcuODkzMzgsNzAuODMxLTE1Ny44OTMzOCwxNTcuODk0MTFzNzAuODMxLDE1Ny44OTQxMSwxNTcuODkzMzgsMTU3Ljg5NDExLDE1Ny44OTQxMS03MC44MzEsMTU3Ljg5NDExLTE1Ny44OTQxMVMyNjYuMDY0NDIsMjEuOTEyMjEsMTc5LjAwMjA1LDIxLjkxMjIxWiIgY2xhc3M9ImNscy0xIi8+PHBvbHlnb24gcG9pbnRzPSIyMDguNjI4IDkwLjM3MyAyMDMuNzI0IDEwOC43MDUgMjQzLjE1MyAxNDEuMDY0IDI4MC4yMSAxMzYuNDk0IDIwOC42MjggOTAuMzczIiBjbGFzcz0iY2xzLTIiLz48cG9seWdvbiBwb2ludHM9IjMwNC42MDQgMTY3LjU5MyAzMDQuNjA0IDEzMy41NTggMjUwLjc3OCA4Ny43NTkgMjA4LjYyOCA5MC4zNzMgMjYwLjAyIDEzMS42NSA1My40MDEgMTMxLjY1IDUzLjQwMSAxNjkuODkzIDMwNC42MDQgMTY3LjU5MyIgY2xhc3M9ImNscy0xIi8+PHBvbHlnb24gcG9pbnRzPSIxNDkuMzc2IDI2MS41MDQgMTU0LjI4IDI0My4xNzIgMTEzLjY4NCAyMDkuMTc5IDc3Ljc5NSAyMTUuMzgyIDE0OS4zNzYgMjYxLjUwNCIgY2xhc3M9ImNscy0zIi8+PHBvbHlnb24gcG9pbnRzPSI1My40MDEgMTg0LjI4MyA1My40MDEgMjE4LjMxOSAxMDcuMjI2IDI2NC4xMTggMTQ5LjM3NiAyNjEuNTA0IDk3Ljk4NCAyMjAuMjI2IDMwNC42MDQgMjIwLjIyNiAzMDQuNjA0IDE4MS45ODQgNTMuNDAxIDE4NC4yODMiIGNsYXNzPSJjbHMtNCIvPjwvc3ZnPg==;" parent="1" vertex="1">
          <mxGeometry x="288" y="337" width="60" height="60" as="geometry" />
        </mxCell>
        <mxCell id="4lTlK-eCGsVboTaURag3-13" style="edgeStyle=orthogonalEdgeStyle;rounded=0;orthogonalLoop=1;jettySize=auto;html=1;" parent="1" source="4lTlK-eCGsVboTaURag3-4" edge="1">
          <mxGeometry relative="1" as="geometry">
            <mxPoint x="390" y="337" as="targetPoint" />
          </mxGeometry>
        </mxCell>
        <mxCell id="4lTlK-eCGsVboTaURag3-25" style="edgeStyle=orthogonalEdgeStyle;rounded=0;orthogonalLoop=1;jettySize=auto;html=1;" parent="1" source="4lTlK-eCGsVboTaURag3-4" target="4lTlK-eCGsVboTaURag3-24" edge="1">
          <mxGeometry relative="1" as="geometry" />
        </mxCell>
        <mxCell id="4lTlK-eCGsVboTaURag3-4" value="&lt;blockquote style=&quot;margin: 0 0 0 40px; border: none; padding: 0px;&quot;&gt;&lt;span style=&quot;font-size: 14px;&quot;&gt;&lt;b&gt;NGINX Ingress&lt;/b&gt;&lt;/span&gt;&lt;/blockquote&gt;" style="rounded=1;whiteSpace=wrap;html=1;" parent="1" vertex="1">
          <mxGeometry x="285" y="187" width="210" height="80" as="geometry" />
        </mxCell>
        <mxCell id="4lTlK-eCGsVboTaURag3-6" value="" style="shape=image;imageAspect=0;aspect=fixed;verticalLabelPosition=bottom;verticalAlign=top;image=data:image/svg+xml,PHN2ZyB4bWxucz0iaHR0cDovL3d3dy53My5vcmcvMjAwMC9zdmciIHZpZXdCb3g9IjAgMCAzMiAzMiIgaGVpZ2h0PSI4MDBweCIgd2lkdGg9IjgwMHB4Ij48dGl0bGU+ZmlsZV90eXBlX25naW54PC90aXRsZT48cGF0aCBzdHlsZT0iZmlsbDojMDE5NjM5IiBkPSJNMTUuOTQ4LDJoLjA2NWExMC40MTgsMTAuNDE4LDAsMCwxLC45NzIuNTI4UTIyLjQxNCw1LjY1LDI3Ljg0Myw4Ljc3NGEuNzkyLjc5MiwwLDAsMSwuNDE0Ljc4OGMtLjAwOCw0LjM4OSwwLDguNzc3LS4wMDUsMTMuMTY0YS44MTMuODEzLDAsMCwxLS4zNTYuNTA3cS01Ljc3MywzLjMyNC0xMS41NDcsNi42NDRhLjU4Ny41ODcsMCwwLDEtLjY1Ny4wMzdROS45MTIsMjYuNiw0LjE0MywyMy4yNzRhLjcuNywwLDAsMS0uNC0uNjY2cTAtNi41ODIsMC0xMy4xNjNhLjY5My42OTMsMCwwLDEsLjM4Ny0uNjdROS41NTIsNS42NTcsMTQuOTc0LDIuNTM1Yy4zMjItLjE4NC42MzgtLjM3OS45NzQtLjUzNSIvPjxwYXRoIHN0eWxlPSJmaWxsOiNmZmYiIGQ9Ik04Ljc2NywxMC41MzhxMCw1LjQyOSwwLDEwLjg1OWExLjUwOSwxLjUwOSwwLDAsMCwuNDI3LDEuMDg3LDEuNjQ3LDEuNjQ3LDAsMCwwLDIuMDYuMjA2LDEuNTY0LDEuNTY0LDAsMCwwLC42ODUtMS4yOTNjMC0yLjYyLS4wMDUtNS4yNCwwLTcuODZxMy41ODMsNC4yOSw3LjE4MSw4LjU2OGEyLjgzMywyLjgzMywwLDAsMCwyLjYuNzgyLDEuNTYxLDEuNTYxLDAsMCwwLDEuMjUxLTEuMzcxcS4wMDgtNS41NDEsMC0xMS4wODFhMS41ODIsMS41ODIsMCwwLDAtMy4xNTIsMGMwLDIuNjYyLS4wMTYsNS4zMjEsMCw3Ljk4Mi0yLjM0Ni0yLjc2Ni00LjY2My01LjU1Ni03LTguMzMyQTIuODE3LDIuODE3LDAsMCwwLDEwLjE3LDkuMDMzLDEuNTc5LDEuNTc5LDAsMCwwLDguNzY3LDEwLjUzOFoiLz48L3N2Zz4=;" parent="1" vertex="1">
          <mxGeometry x="295" y="197" width="60" height="60" as="geometry" />
        </mxCell>
        <mxCell id="4lTlK-eCGsVboTaURag3-12" style="edgeStyle=orthogonalEdgeStyle;rounded=0;orthogonalLoop=1;jettySize=auto;html=1;entryX=0;entryY=0.5;entryDx=0;entryDy=0;" parent="1" source="4lTlK-eCGsVboTaURag3-7" target="4lTlK-eCGsVboTaURag3-1" edge="1">
          <mxGeometry relative="1" as="geometry" />
        </mxCell>
        <mxCell id="4lTlK-eCGsVboTaURag3-15" style="edgeStyle=orthogonalEdgeStyle;rounded=0;orthogonalLoop=1;jettySize=auto;html=1;exitX=0.5;exitY=1;exitDx=0;exitDy=0;" parent="1" source="4lTlK-eCGsVboTaURag3-7" target="4lTlK-eCGsVboTaURag3-14" edge="1">
          <mxGeometry relative="1" as="geometry" />
        </mxCell>
        <mxCell id="4lTlK-eCGsVboTaURag3-22" style="edgeStyle=orthogonalEdgeStyle;rounded=0;orthogonalLoop=1;jettySize=auto;html=1;" parent="1" edge="1">
          <mxGeometry relative="1" as="geometry">
            <mxPoint x="394" y="417" as="sourcePoint" />
            <mxPoint x="344" y="471" as="targetPoint" />
            <Array as="points">
              <mxPoint x="394" y="444" />
              <mxPoint x="344" y="444" />
            </Array>
          </mxGeometry>
        </mxCell>
        <mxCell id="uEvJGxtLssJ3_L7rwm59-9" style="edgeStyle=orthogonalEdgeStyle;rounded=0;orthogonalLoop=1;jettySize=auto;html=1;" edge="1" parent="1">
          <mxGeometry relative="1" as="geometry">
            <mxPoint x="394" y="417" as="sourcePoint" />
            <mxPoint x="491" y="471.72" as="targetPoint" />
            <Array as="points">
              <mxPoint x="394" y="444" />
              <mxPoint x="491" y="444" />
            </Array>
          </mxGeometry>
        </mxCell>
        <mxCell id="uEvJGxtLssJ3_L7rwm59-12" style="edgeStyle=orthogonalEdgeStyle;rounded=0;orthogonalLoop=1;jettySize=auto;html=1;" edge="1" parent="1" target="uEvJGxtLssJ3_L7rwm59-11">
          <mxGeometry relative="1" as="geometry">
            <mxPoint x="393" y="424" as="sourcePoint" />
            <mxPoint x="676" y="478" as="targetPoint" />
            <Array as="points">
              <mxPoint x="393" y="444" />
              <mxPoint x="620" y="444" />
            </Array>
          </mxGeometry>
        </mxCell>
        <mxCell id="4lTlK-eCGsVboTaURag3-7" value="&lt;blockquote style=&quot;margin: 0 0 0 40px; border: none; padding: 0px;&quot;&gt;&lt;b&gt;&lt;font style=&quot;font-size: 14px;&quot;&gt;OAuth2.0 Proxy&lt;/font&gt;&lt;/b&gt;&lt;/blockquote&gt;" style="rounded=1;whiteSpace=wrap;html=1;" parent="1" vertex="1">
          <mxGeometry x="288" y="337" width="210" height="80" as="geometry" />
        </mxCell>
        <mxCell id="4lTlK-eCGsVboTaURag3-8" value="" style="shape=image;imageAspect=0;aspect=fixed;verticalLabelPosition=bottom;verticalAlign=top;image=data:image/svg+xml,PHN2ZyB4bWxucz0iaHR0cDovL3d3dy53My5vcmcvMjAwMC9zdmciIHZpZXdCb3g9IjAgMCAzNjAgMzYwIiBkYXRhLW5hbWU9IkxheWVyIDEiIGlkPSJMYXllcl8xIj48ZGVmcz48c3R5bGU+LmNscy0xe2ZpbGw6IzA2ZWQ5NDt9LmNscy0ye2ZpbGw6IzA1OWI2MTt9LmNscy0ze2ZpbGw6IzE5NTdiYTt9LmNscy00e2ZpbGw6IzZjYThmZjt9PC9zdHlsZT48L2RlZnM+PHRpdGxlPk9BdXRoMl9Qcm94eV9sb2dvX3YzPC90aXRsZT48cGF0aCBkPSJNMTc5LjAwMjA1LDM0OS43MjhjLTkzLjY5NDgzLDAtMTY5LjkyMS03Ni4yMjY4Ny0xNjkuOTIxLTE2OS45MjE3Uzg1LjMwNzIyLDkuODg0NjIsMTc5LjAwMjA1LDkuODg0NjJjOTMuNjk0MDgsMCwxNjkuOTIwMjEsNzYuMjI2ODcsMTY5LjkyMDIxLDE2OS45MjE3UzI3Mi42OTYxMywzNDkuNzI4LDE3OS4wMDIwNSwzNDkuNzI4Wm0wLTMyNy44MTU4MWMtODcuMDYyMzgsMC0xNTcuODkzMzgsNzAuODMxLTE1Ny44OTMzOCwxNTcuODk0MTFzNzAuODMxLDE1Ny44OTQxMSwxNTcuODkzMzgsMTU3Ljg5NDExLDE1Ny44OTQxMS03MC44MzEsMTU3Ljg5NDExLTE1Ny44OTQxMVMyNjYuMDY0NDIsMjEuOTEyMjEsMTc5LjAwMjA1LDIxLjkxMjIxWiIgY2xhc3M9ImNscy0xIi8+PHBvbHlnb24gcG9pbnRzPSIyMDguNjI4IDkwLjM3MyAyMDMuNzI0IDEwOC43MDUgMjQzLjE1MyAxNDEuMDY0IDI4MC4yMSAxMzYuNDk0IDIwOC42MjggOTAuMzczIiBjbGFzcz0iY2xzLTIiLz48cG9seWdvbiBwb2ludHM9IjMwNC42MDQgMTY3LjU5MyAzMDQuNjA0IDEzMy41NTggMjUwLjc3OCA4Ny43NTkgMjA4LjYyOCA5MC4zNzMgMjYwLjAyIDEzMS42NSA1My40MDEgMTMxLjY1IDUzLjQwMSAxNjkuODkzIDMwNC42MDQgMTY3LjU5MyIgY2xhc3M9ImNscy0xIi8+PHBvbHlnb24gcG9pbnRzPSIxNDkuMzc2IDI2MS41MDQgMTU0LjI4IDI0My4xNzIgMTEzLjY4NCAyMDkuMTc5IDc3Ljc5NSAyMTUuMzgyIDE0OS4zNzYgMjYxLjUwNCIgY2xhc3M9ImNscy0zIi8+PHBvbHlnb24gcG9pbnRzPSI1My40MDEgMTg0LjI4MyA1My40MDEgMjE4LjMxOSAxMDcuMjI2IDI2NC4xMTggMTQ5LjM3NiAyNjEuNTA0IDk3Ljk4NCAyMjAuMjI2IDMwNC42MDQgMjIwLjIyNiAzMDQuNjA0IDE4MS45ODQgNTMuNDAxIDE4NC4yODMiIGNsYXNzPSJjbHMtNCIvPjwvc3ZnPg==;" parent="1" vertex="1">
          <mxGeometry x="298" y="347" width="60" height="60" as="geometry" />
        </mxCell>
        <mxCell id="4lTlK-eCGsVboTaURag3-9" value="" style="shape=image;imageAspect=0;aspect=fixed;verticalLabelPosition=bottom;verticalAlign=top;image=data:image/svg+xml,PHN2ZyB4bWxucz0iaHR0cDovL3d3dy53My5vcmcvMjAwMC9zdmciIHZpZXdCb3g9IjAgMCA0NC4yMTYgMzkuODYxIiBoZWlnaHQ9IjE1MC42NTgiIHdpZHRoPSIxNjcuMTE3Ij48cGF0aCB0cmFuc2Zvcm09InRyYW5zbGF0ZSgtODIuODE1IC0xMjguNTg4KSIgc3R5bGU9ImRpc3BsYXk6aW5saW5lO2ZpbGw6IzRkNGQ0ZDtmaWxsLW9wYWNpdHk6MTtzdHJva2Utd2lkdGg6LjI2NDU4MyIgZD0ibTg4LjYxIDEzOC40NTYgNS43MTYtOS44NjUgMjMuMDE4LS4wMDQgNS42ODYgOS45NjUuMDA3IDE5LjkzMi01LjY5MSA5Ljk1Ny0yMy4wMTIuMDA4LTUuNzgyLTkuOTY1eiIvPjxwYXRoIHRyYW5zZm9ybT0idHJhbnNsYXRlKC04Mi44MTUgLTEyOC41ODgpIiBzdHlsZT0iZmlsbDojZWRlZGVkO2ZpbGwtb3BhY2l0eToxO2ZpbGwtcnVsZTpub256ZXJvO3N0cm9rZTpub25lO3N0cm9rZS13aWR0aDouMzMwNzI5IiBkPSJNODguNTUyIDE1OC40ODFoMTAuMzc1bC01LjY5OS0xMC4wNDEgNC42MzQtOS45ODItOS4yNTItLjAwMi01Ljc5NSAxMC4wNjUiLz48cGF0aCB0cmFuc2Zvcm09InRyYW5zbGF0ZSgtODIuODE1IC0xMjguNTg4KSIgc3R5bGU9ImZpbGw6I2UwZTBlMDtmaWxsLW9wYWNpdHk6MTtmaWxsLXJ1bGU6bm9uemVybztzdHJva2U6bm9uZTtzdHJva2Utd2lkdGg6LjMzMDcyOSIgZD0iTTEwMi4wNzMgMTU4LjQ4MWg3LjU4Mmw2LjcwNi05Ljc3My02LjU4OS0xMC4xNTZoLTguOTIxbC01LjM3MyA5LjgxNHoiLz48cGF0aCB0cmFuc2Zvcm09InRyYW5zbGF0ZSgtODIuODE1IC0xMjguNTg4KSIgc3R5bGU9ImZpbGw6I2FjYWNhYztmaWxsLW9wYWNpdHk6MTtmaWxsLXJ1bGU6bm9uemVybztzdHJva2U6bm9uZTtzdHJva2Utd2lkdGg6LjMzMDcyOSIgZD0ibTgyLjgxNSAxNDguNTIgNS43MzggOS45NjRoMTAuMzc0bC01LjYzNi05LjkzeiIvPjxwYXRoIHRyYW5zZm9ybT0idHJhbnNsYXRlKC04Mi44MTUgLTEyOC41ODgpIiBzdHlsZT0iZmlsbDojOWU5ZTllO2ZpbGwtb3BhY2l0eToxO2ZpbGwtcnVsZTpub256ZXJvO3N0cm9rZTpub25lO3N0cm9rZS13aWR0aDouMzMwNzI5IiBkPSJtOTUuNTg5IDE0OC41MjIgNi40ODQgOS45NjNoNy41ODJsNi42MDEtOS45NTl6Ii8+PHBhdGggdHJhbnNmb3JtPSJ0cmFuc2xhdGUoLTgyLjgxNSAtMTI4LjU4OCkiIHN0eWxlPSJmaWxsOiMwMGI4ZTM7ZmlsbC1vcGFjaXR5OjE7ZmlsbC1ydWxlOm5vbnplcm87c3Ryb2tlOm5vbmU7c3Ryb2tlLXdpZHRoOi4zMzA3MjkiIGQ9Im05OC4xNTcgMTQ4LjUyOS0xLjk1OC41NjktMS44NzctLjU3MiA3LjY2Ny0xMy4yODggMS45MTggMy4zMTYiLz48cGF0aCB0cmFuc2Zvcm09InRyYW5zbGF0ZSgtODIuODE1IC0xMjguNTg4KSIgc3R5bGU9ImZpbGw6IzMzYzZlOTtmaWxsLW9wYWNpdHk6MTtmaWxsLXJ1bGU6bm9uemVybztzdHJva2U6bm9uZTtzdHJva2Utd2lkdGg6LjMzMDcyOSIgZD0ibTEwMy45IDE1OC40ODItMS45MDkgMy4zMzItNS4wOTMtNS40ODctMi41OC03Ljc5N3YtLjAwNGgzLjgzOCIvPjxwYXRoIHRyYW5zZm9ybT0idHJhbnNsYXRlKC04Mi44MTUgLTEyOC41ODgpIiBzdHlsZT0iZmlsbDojMDA4YWFhO2ZpbGwtb3BhY2l0eToxO2ZpbGwtcnVsZTpub256ZXJvO3N0cm9rZTpub25lO3N0cm9rZS13aWR0aDouMzMwNzI5IiBkPSJNOTQuMzIyIDE0OC41MjZoLS4wMDN2LjAwM2wtMS45MTggMy4zMjItMS45MjUtMy4zMDcgMS45NTItMy4zODYgNS43MjgtOS45MmgzLjgzNCIvPjxwYXRoIHRyYW5zZm9ybT0idHJhbnNsYXRlKC04Mi44MTUgLTEyOC41ODgpIiBzdHlsZT0iZmlsbDojZDRkNGQ0O2ZpbGwtb3BhY2l0eToxO2ZpbGwtcnVsZTpub256ZXJvO3N0cm9rZTpub25lO3N0cm9rZS13aWR0aDouMzMwNzI5IiBkPSJNMTE1LjQyIDE1OC40ODFoMTEuNjExbC0uMDA3LTE5LjkzaC0xMS42MDV6Ii8+PHBhdGggdHJhbnNmb3JtPSJ0cmFuc2xhdGUoLTgyLjgxNSAtMTI4LjU4OCkiIHN0eWxlPSJmaWxsOiM5MTkxOTE7ZmlsbC1vcGFjaXR5OjE7ZmlsbC1ydWxlOm5vbnplcm87c3Ryb2tlOm5vbmU7c3Ryb2tlLXdpZHRoOi4zMzA3MjkiIGQ9Ik0xMTUuNDIgMTQ4LjU1NHY5LjkzaDExLjU5di05LjkzeiIvPjxwYXRoIHRyYW5zZm9ybT0idHJhbnNsYXRlKC04Mi44MTUgLTEyOC41ODgpIiBzdHlsZT0iZmlsbDojMDBiOGUzO2ZpbGwtb3BhY2l0eToxO2ZpbGwtcnVsZTpub256ZXJvO3N0cm9rZTpub25lO3N0cm9rZS13aWR0aDouMzMwNzI5IiBkPSJNMTAxLjk5MiAxNjEuODE3aC0zLjgzNmwtNS43NTUtOS45NjYgMS45MTgtMy4zMjF6Ii8+PHBhdGggdHJhbnNmb3JtPSJ0cmFuc2xhdGUoLTgyLjgxNSAtMTI4LjU4OCkiIHN0eWxlPSJmaWxsOiMwMDhhYWE7ZmlsbC1vcGFjaXR5OjE7ZmlsbC1ydWxlOm5vbnplcm87c3Ryb2tlOm5vbmU7c3Ryb2tlLXdpZHRoOi4zMzA3MjkiIGQ9Im0xMTcuMzMzIDE0OC41MjYtNy42NjkgMTMuMjg5Yy0uNzA1LTEuMDM2LTEuOTEzLTMuMzMxLTEuOTEzLTMuMzMxbDUuNzUzLTkuOTU5eiIvPjxwYXRoIHRyYW5zZm9ybT0idHJhbnNsYXRlKC04Mi44MTUgLTEyOC41ODgpIiBzdHlsZT0iZmlsbDojMDBiOGUzO2ZpbGwtb3BhY2l0eToxO2ZpbGwtcnVsZTpub256ZXJvO3N0cm9rZTpub25lO3N0cm9rZS13aWR0aDouMzMwNzI5IiBkPSJtMTEzLjQ5NSAxNjEuODE1LTMuODMxLS4wMDEgNy42Ny0xMy4yODggMS45MTctMy4zMTcgMS45MjEgMy4zNG0tMy44MzktLjAyM2gtMy44MjhsLTUuNzU1LTkuOTczIDEuOTA1LTMuMzE0IDQuNjU4IDUuOTIyeiIvPjxwYXRoIHRyYW5zZm9ybT0idHJhbnNsYXRlKC04Mi44MTUgLTEyOC41ODgpIiBzdHlsZT0iZmlsbDojMzNjNmU5O2ZpbGwtb3BhY2l0eToxO2ZpbGwtcnVsZTpub256ZXJvO3N0cm9rZTpub25lO3N0cm9rZS13aWR0aDouMzMwNzI5IiBkPSJNMTE5LjI1IDE0NS4yMDV2LjAwM2wtMS45MTcgMy4zMTgtNy42NzctMTMuMjg2IDMuODQxLjAwMnoiLz48L3N2Zz4=;" parent="1" vertex="1">
          <mxGeometry x="648" y="352" width="55.3" height="50" as="geometry" />
        </mxCell>
        <mxCell id="4lTlK-eCGsVboTaURag3-10" value="TLS Termination" style="text;strokeColor=none;align=center;fillColor=none;html=1;verticalAlign=middle;whiteSpace=wrap;rounded=0;" parent="1" vertex="1">
          <mxGeometry x="288" y="157" width="90" height="30" as="geometry" />
        </mxCell>
        <mxCell id="4lTlK-eCGsVboTaURag3-14" value="&lt;blockquote style=&quot;margin: 0 0 0 40px; border: none; padding: 0px;&quot;&gt;&lt;b style=&quot;background-color: initial;&quot;&gt;&lt;font style=&quot;font-size: 14px;&quot;&gt;Longhorn&lt;/font&gt;&lt;/b&gt;&lt;/blockquote&gt;&lt;blockquote style=&quot;margin: 0 0 0 40px; border: none; padding: 0px;&quot;&gt;&lt;b style=&quot;background-color: initial;&quot;&gt;&lt;font style=&quot;font-size: 14px;&quot;&gt;UI&lt;/font&gt;&lt;/b&gt;&lt;br&gt;&lt;/blockquote&gt;" style="rounded=1;whiteSpace=wrap;html=1;" parent="1" vertex="1">
          <mxGeometry x="115" y="471" width="142" height="80" as="geometry" />
        </mxCell>
        <mxCell id="4lTlK-eCGsVboTaURag3-16" value="Secured http upstream service" style="text;strokeColor=none;align=center;fillColor=none;html=1;verticalAlign=middle;whiteSpace=wrap;rounded=0;" parent="1" vertex="1">
          <mxGeometry x="5" y="496" width="105" height="30" as="geometry" />
        </mxCell>
        <mxCell id="4lTlK-eCGsVboTaURag3-17" value="OAuth 2.0 Client" style="text;strokeColor=none;align=center;fillColor=none;html=1;verticalAlign=middle;whiteSpace=wrap;rounded=0;fontStyle=1" parent="1" vertex="1">
          <mxGeometry x="170.5" y="362" width="105" height="30" as="geometry" />
        </mxCell>
        <mxCell id="4lTlK-eCGsVboTaURag3-18" value="&lt;b&gt;IAM (Identity Access Management)&lt;br&gt;IdP (Identity Provider)&lt;/b&gt;" style="text;strokeColor=none;align=center;fillColor=none;html=1;verticalAlign=middle;whiteSpace=wrap;rounded=0;" parent="1" vertex="1">
          <mxGeometry x="638" y="418" width="200" height="50" as="geometry" />
        </mxCell>
        <mxCell id="4lTlK-eCGsVboTaURag3-19" value="" style="shape=image;imageAspect=0;aspect=fixed;verticalLabelPosition=bottom;verticalAlign=top;image=data:image/svg+xml,PHN2ZyB4bWxucz0iaHR0cDovL3d3dy53My5vcmcvMjAwMC9zdmciIHZpZXdCb3g9IjAgMCAzNTYuOTgwMDEgMjk0LjQ4MDAxIiBkYXRhLW5hbWU9IkxheWVyIDEiIGlkPSJMYXllcl8xIj48ZGVmcz48c3R5bGU+LmNscy0xe2ZpbGw6I2ZmZjt9LmNscy0ye2ZpbGw6IzVmMjI0YTt9PC9zdHlsZT48L2RlZnM+PHBhdGggZD0iTTMwNS4wNDk2Miw2MC4yNTI1OUExNy42NjMzNiwxNy42NjMzNiwwLDAsMCwyODUuMDE0LDc1LjE3MWwtMi42MDYzMywxNy43MTQ4NEwxNzguNjIsMTEzLjYwNzIxLDc0LjgzMjI4LDkyLjg4NTg5LDcyLjIyNiw3NS4xNzExMWExNy42NjMzNCwxNy42NjMzNCwwLDAsMC0zNC45NTAxOSw1LjE0MzY4TDQxLjY5NTA3LDExMC4zNDJhMTcuNjY0MTcsMTcuNjY0MTcsMCwwLDAsMTQuMDE2NjYsMTQuNzQ5NjNsNzMuMTI3OTMsMTQuNjAwMjksOS45NjQyMyw2MS4zMDkzOGEzNS4zNzIsMzUuMzcyLDAsMCwwLDM1LjI4ODIxLDMzLjY2MjQ4aDkuMDU0MDhBMzUuMzczMDYsMzUuMzczMDYsMCwwLDAsMjE4LjQyNCwyMDEuMjA0ODZMMjI5LjY2ODY0LDEzOS42NDhjLjAxMzE4LS4wNzE5LjAxNTg3LS4xNDMxMy4wMjgyNi0uMjE1bDcxLjgzMTQyLTE0LjM0MTNhMTcuNjY0MTIsMTcuNjY0MTIsMCwwLDAsMTQuMDE2Ni0xNC43NDk3bDQuNDE5MTktMzAuMDI3MjIuMDA0LS4wMjY2MUExNy42NjMzNywxNy42NjMzNywwLDAsMCwzMDUuMDQ5NjIsNjAuMjUyNTlaTTE4My40MzQzMywxOTYuMTYzYTE3LjY1OTU5LDE3LjY1OTU5LDAsMCwwLS4yODgwOSwzLjE3NDY5aC05LjA1NDA4YTE3LjUzMjIsMTcuNTMyMiwwLDAsMC0uMjI5NDMtMi44MzRsLTguMDM0MjQtNDkuNDI2ODIsOS4zMzMwNywxLjg2MzM1YTE3LjY4MDYzLDE3LjY4MDYzLDAsMCwwLDYuOTE2OTMsMGwxMC4zNjA2Ni0yLjA2ODU1WiIgY2xhc3M9ImNscy0xIi8+PHBhdGggZD0iTTE3OC42MiwxNDkuMjgxNzdhMTcuNjc4ODIsMTcuNjc4ODIsMCwwLDEtMy40NTg0NC0uMzQxNTVsLTkuMzMzMDctMS44NjMzNSw4LjAzNDI0LDQ5LjQyNjgyYTE3LjUzMjIsMTcuNTMyMiwwLDAsMSwuMjI5NDMsMi44MzRoOS4wNTQwOGExNy42NTk1OSwxNy42NTk1OSwwLDAsMSwuMjg4MDktMy4xNzQ2OWw5LjAwNDgyLTQ5LjI5MTMyLTEwLjM2MDY2LDIuMDY4NTVBMTcuNjc5LDE3LjY3OSwwLDAsMSwxNzguNjIsMTQ5LjI4MTc3WiIgY2xhc3M9ImNscy0yIi8+PHBhdGggZD0iTTMxMy44NjE2Myw2Ljg3SDQzLjM3ODZBMzYuNDIzLDM2LjQyMywwLDAsMCw3LjA2MjE5LDQzLjE4NjQzVjI1MS41NTM1NkEzNi40MjMwOCwzNi40MjMwOCwwLDAsMCw0My4zNzg2LDI4Ny44N2gyNzAuNDgzYTM2LjQyMywzNi40MjMsMCwwLDAsMzYuMzE2MjMtMzYuMzE2NDdWNDMuMTg2NDNBMzYuNDIzLDM2LjQyMywwLDAsMCwzMTMuODYxNjMsNi44N1ptNi4xMDY0NSw3My40MTgxNS0uMDA0LjAyNjYxTDMxNS41NDQ5MiwxMTAuMzQyYTE3LjY2NDEyLDE3LjY2NDEyLDAsMCwxLTE0LjAxNjYsMTQuNzQ5N0wyMjkuNjk2OSwxMzkuNDMzYy0uMDEyMzkuMDcxOS0uMDE1MDguMTQzMTMtLjAyODI2LjIxNUwyMTguNDI0LDIwMS4yMDQ4NmEzNS4zNzMwNiwzNS4zNzMwNiwwLDAsMS0zNS4yNzc4MywzMy40NTg5M0gxNzQuMDkyMWEzNS4zNzIsMzUuMzcyLDAsMCwxLTM1LjI4ODIxLTMzLjY2MjQ4bC05Ljk2NDIzLTYxLjMwOTM4TDU1LjcxMTczLDEyNS4wOTE2NEExNy42NjQxNywxNy42NjQxNywwLDAsMSw0MS42OTUwNywxMTAuMzQyTDM3LjI3NTc2LDgwLjMxNDc5QTE3LjY2MzM0LDE3LjY2MzM0LDAsMCwxLDcyLjIyNiw3NS4xNzExMWwyLjYwNjMzLDE3LjcxNDc4TDE3OC42MiwxMTMuNjA3MjEsMjgyLjQwNzcxLDkyLjg4NTg5LDI4NS4wMTQsNzUuMTcxYTE3LjY2MzMxLDE3LjY2MzMxLDAsMSwxLDM0Ljk1NCw1LjExNzEzWiIgY2xhc3M9ImNscy0yIi8+PC9zdmc+;" parent="1" vertex="1">
          <mxGeometry x="123" y="491.72" width="48.53" height="40" as="geometry" />
        </mxCell>
        <mxCell id="4lTlK-eCGsVboTaURag3-20" value="&lt;blockquote style=&quot;margin: 0 0 0 40px; border: none; padding: 0px;&quot;&gt;&lt;b style=&quot;background-color: initial;&quot;&gt;&lt;font style=&quot;font-size: 14px;&quot;&gt;Prometheus&lt;/font&gt;&lt;/b&gt;&lt;/blockquote&gt;&lt;blockquote style=&quot;margin: 0 0 0 40px; border: none; padding: 0px;&quot;&gt;&lt;b style=&quot;background-color: initial;&quot;&gt;&lt;font style=&quot;font-size: 14px;&quot;&gt;UI&lt;/font&gt;&lt;/b&gt;&lt;br&gt;&lt;/blockquote&gt;" style="rounded=1;whiteSpace=wrap;html=1;" parent="1" vertex="1">
          <mxGeometry x="271" y="471" width="142" height="80" as="geometry" />
        </mxCell>
        <mxCell id="4lTlK-eCGsVboTaURag3-23" value="" style="shape=image;imageAspect=0;aspect=fixed;verticalLabelPosition=bottom;verticalAlign=top;image=data:image/svg+xml,PHN2ZyB4bWxucz0iaHR0cDovL3d3dy53My5vcmcvMjAwMC9zdmciIHZpZXdCb3g9Ii0zLjk0IC0xLjQ0IDQzOC42MiA0MzIuODciIHJvbGU9ImltZyI+PHBhdGggZD0iTTIxNS45MjYgNy4wNjhjMTE1LjY4NC4wMjQgMjEwLjYzOCA5My43ODQgMjEwLjQ5MyAyMDcuODQ0LS4xNDggMTE1Ljc5My05NC43MTMgMjA4LjI1Mi0yMTIuOTEyIDIwOC4xNjlDOTcuOTUgNDIzIDQuNTIgMzI5LjE0MyA0LjYwMSAyMTMuMjIxIDQuNjggOTkuODY3IDk5LjgzMyA3LjA0NCAyMTUuOTI2IDcuMDY4em0tNjMuOTQ3IDczLjAwMWMyLjY1MiAxMi45NzguMDc2IDI1LjA4Mi0zLjg0NiAzNi45ODgtMi43MTYgOC4yNDQtNi40NyAxNi4xODMtOC43MTEgMjQuNTM5LTMuNjk0IDEzLjc2OS03Ljg4NSAyNy42MTktOS40MjIgNDEuNzAxLTIuMjEgMjAuMjUgNS43OTUgMzguMDg2IDE5LjQ5MyA1NS44MjJMODYuNTI3IDIyNS45NGMuMTEgMS45NzgtLjAwNyAyLjcyNy4yMSAzLjM2MSA1Ljk2OCAxNy40MyAxNi40NzEgMzIuMTE1IDI4LjI0MyA0NS45NTcgMS4yNDYgMS40NjUgNC4wODIgMi4yMTcgNi4xODIgMi4yMjEgNjIuNzgyLjExNSAxMjUuNTY1LjEwOSAxODguMzQ3LjAyOCAxLjk0OC0uMDAzIDQuNTQ2LS4zNjkgNS43NDEtMS42MTggMTMuNDU2LTE0LjA2MyAyMy43NDYtMzAuMDc5IDMwLjE3OS01MC4yNTdsLTY2LjY1OCAxMi45NzZjNC4zOTctOC41NjcgOS40MTctMTYuMSAxMi4zMDItMjQuMzc3IDkuODY5LTI4LjMxNSA1Ljc3OS01NS42OS04LjM4Ny04MS41MDktMTEuMzY4LTIwLjcyLTIxLjg1NC00MS4zNDktMTYuMTgzLTY2LjMyLTEyLjAwNSAxMS43ODYtMTYuNjE1IDI2Ljc5LTE5LjU0MSA0Mi4yNTMtMi44ODIgMTUuMjMtNC41OCAzMC42ODQtNi44MTEgNDYuMTM2LS4zMTctLjQ2Ny0uNzI4LS44MTEtLjc5Mi0xLjIxMi0uMjU4LTEuNjIxLS40OTktMy4yNTUtLjU4Ny00Ljg5My0xLjM1NS0yNS4zMS02LjMyOC00OS42OTYtMTYuODIzLTcyLjk4Ny02LjE3OC0xMy43MS0xMi45OS0yNy43MjctNi42MjItNDQuMDgxLTQuMzEgMi4yNTktOC4yMDUgNC41MDUtMTAuOTk3IDcuNzExLTguMzMzIDkuNTY5LTExLjc3OSAyMS4wNjItMTIuNjY2IDMzLjY0NS0uNzU3IDEwLjc1LTEuNzk2IDIxLjU1Mi0zLjgwMSAzMi4xMjMtMi4xMDcgMTEuMTA5LTUuNDQ4IDIxLjk5OC0xMi45NTYgMzIuMjA5LTMuMDMzLTIxLjgxLTMuMzctNDMuMzgtMjIuOTI4LTU3LjIzN3ptMTYxLjg3NyAyMTYuNTIzSDExNi45NDJ2MzQuMDA3aDE5Ni45MTR2LTM0LjAwN3ptLTE1Ny44NzEgNTEuNTc1Yy0uMTYzIDI4LjMxNyAyOC44NTEgNDkuNDE0IDY0LjcwOSA0Ny44ODMgMjkuNzE2LTEuMjY5IDU2LjAxNi0yNC41MSA1My43NTUtNDcuODgzSDE1NS45ODV6IiBmaWxsPSIjRTc1MjI1Ii8+PC9zdmc+;" parent="1" vertex="1">
          <mxGeometry x="281" y="490.28000000000003" width="42" height="41.44" as="geometry" />
        </mxCell>
        <mxCell id="4lTlK-eCGsVboTaURag3-27" style="edgeStyle=orthogonalEdgeStyle;rounded=0;orthogonalLoop=1;jettySize=auto;html=1;" parent="1" source="4lTlK-eCGsVboTaURag3-24" target="4lTlK-eCGsVboTaURag3-1" edge="1">
          <mxGeometry relative="1" as="geometry" />
        </mxCell>
        <mxCell id="4lTlK-eCGsVboTaURag3-24" value="&lt;blockquote style=&quot;margin: 0 0 0 40px; border: none; padding: 0px;&quot;&gt;&lt;b&gt;&lt;font style=&quot;font-size: 14px;&quot;&gt;Grafana&lt;/font&gt;&lt;/b&gt;&lt;/blockquote&gt;" style="rounded=1;whiteSpace=wrap;html=1;" parent="1" vertex="1">
          <mxGeometry x="628" y="187" width="210" height="80" as="geometry" />
        </mxCell>
        <mxCell id="4lTlK-eCGsVboTaURag3-26" value="" style="shape=image;imageAspect=0;aspect=fixed;verticalLabelPosition=bottom;verticalAlign=top;image=data:image/svg+xml,PHN2ZyB4bWxucz0iaHR0cDovL3d3dy53My5vcmcvMjAwMC9zdmciIGZpbGw9Im5vbmUiIHZpZXdCb3g9IjAgMCA4NCA5MCIgaGVpZ2h0PSI5MCIgd2lkdGg9Ijg0Ij4mI3hhOzxwYXRoIGZpbGw9InVybCgjcGFpbnQwX2xpbmVhcikiIGQ9Ik04My45MTk4IDM5LjY2NTlDODMuODIxNSAzOC4xMTQyIDgzLjUyNjcgMzYuMzY4NSA4My4wMzU0IDM0LjUyNTlDODIuNTQ0IDMyLjU4NjIgODEuNzU3OSAzMC41NDk2IDgwLjY3NyAyOC4zMTlDNzkuNTk2IDI2LjE4NTMgNzguMTIyIDIzLjg1NzggNzYuMjU1IDIxLjcyNDFDNzUuNTY3MSAyMC44NTEzIDc0Ljc4MSAxOS45Nzg0IDczLjg5NjYgMTkuMjAyNkM3NS4xNzQgMTQuMTU5NSA3Mi4zMjQzIDkuNzk1MjYgNzIuMzI0MyA5Ljc5NTI2QzY3LjQxMSA5LjUwNDMxIDY0LjI2NjQgMTEuMjUgNjMuMDg3MiAxMi4xMjI4QzYyLjg5MDcgMTIuMDI1OSA2Mi42OTQyIDExLjkyODkgNjIuNDk3NiAxMS45Mjg5QzYxLjcxMTUgMTEuNjM3OSA2MC44MjcxIDExLjI1IDU5Ljk0MjcgMTEuMDU2QzU5LjA1ODMgMTAuODYyMSA1OC4xNzM5IDEwLjU3MTEgNTcuMTkxMiAxMC4yODAyQzU2LjMwNjggMTAuMDg2MiA1NS4zMjQyIDkuODkyMjQgNTQuMzQxNSA5LjY5ODI4QzU0LjE0NSA5LjY5ODI4IDU0LjA0NjcgOS42MDEyOSA1My44NTAyIDkuNjAxMjlDNTEuNjg4MyAyLjgxMjUgNDUuNTk1OCAwIDQ1LjU5NTggMEMzOC43MTcxIDQuMjY3MjQgMzcuNDM5NiAxMC4yODAyIDM3LjQzOTYgMTAuMjgwMkMzNy40Mzk2IDEwLjI4MDIgMzcuNDM5NiAxMC4zNzcyIDM3LjM0MTMgMTAuNjY4MUMzNi45NDgzIDEwLjc2NTEgMzYuNTU1MiAxMC44NjIxIDM2LjE2MjEgMTAuOTU5MUMzNS42NzA4IDExLjE1MyAzNS4wODEyIDExLjM0NyAzNC41ODk5IDExLjQ0NEMzNC4wOTg1IDExLjYzNzkgMzMuNTA4OSAxMS44MzE5IDMzLjAxNzYgMTIuMDI1OUMzMi4wMzQ5IDEyLjQxMzggMzAuOTU0IDEyLjk5NTcgMjkuOTcxMyAxMy40ODA2QzI4Ljk4ODcgMTQuMDYyNSAyOC4wMDYgMTQuNjQ0NCAyNy4xMjE2IDE1LjIyNjNDMjcuMDIzMyAxNS4xMjkzIDI2LjkyNTEgMTUuMTI5MyAyNi45MjUxIDE1LjEyOTNDMTcuMzkzMiAxMS41NDA5IDguOTQyMjcgMTUuODA4MiA4Ljk0MjI3IDE1LjgwODJDOC4yNTQ0IDI1Ljg5NDQgMTIuNzc0NyAzMi4xOTgzIDEzLjY1OTEgMzMuMzYyMUMxMy40NjI1IDMzLjk0NCAxMy4yNjYgMzQuNjIyOCAxMy4wNjk1IDM1LjIwNDdDMTIuMzgxNiAzNy40MzUzIDExLjg5MDMgMzkuNzYyOSAxMS40OTcyIDQyLjE4NzVDMTEuNDk3MiA0Mi40Nzg0IDExLjM5ODkgNDIuODY2NCAxMS4zOTg5IDQzLjI1NDNDMi42NTMyIDQ3LjUyMTYgMCA1Ni4yNSAwIDU2LjI1QzcuMzcgNjQuNTkwNSAxNS44MjA5IDY1LjA3NTQgMTUuODIwOSA2NS4wNzU0QzE2LjkwMTkgNjcuMDE1MSAxOC4xNzkzIDY4Ljc2MDggMTkuNTU1MSA3MC41MDY1QzIwLjE0NDcgNzEuMTg1MyAyMC43MzQzIDcxLjg2NDIgMjEuNDIyMSA3Mi41NDMxQzE4Ljc2ODkgODAuMTA3OCAyMS44MTUyIDg2LjMxNDcgMjEuODE1MiA4Ni4zMTQ3QzI5Ljk3MTMgODYuNjA1NiAzNS4zNzYgODIuODIzMyAzNi40NTY5IDgxLjk1MDRDMzcuMjQzMSA4Mi4yNDE0IDM4LjEyNzUgODIuNDM1MyAzOC45MTM2IDgyLjYyOTNDNDEuMzcwMyA4My4zMDgyIDQ0LjAyMzUgODMuNTk5MSA0Ni41Nzg0IDgzLjc5MzFDNDcuMTY4IDgzLjc5MzEgNDcuODU1OSA4My43OTMxIDQ4LjU0MzggODMuNzkzMUg0OC44Mzg2SDQ5LjAzNTFINDkuNDI4Mkg0OS44MjEyQzUzLjY1MzYgODkuMjI0MSA2MC40MzQgOTAgNjAuNDM0IDkwQzY1LjI0OTEgODQuOTU2OSA2NS41NDM5IDgwLjAxMDggNjUuNTQzOSA3OC45NDRDNjUuNTQzOSA3OC45NDQgNjUuNTQzOSA3OC45NDQgNjUuNTQzOSA3OC44NDdDNjUuNTQzOSA3OC43NSA2NS41NDM5IDc4LjY1MyA2NS41NDM5IDc4LjY1M0M2NS41NDM5IDc4LjU1NiA2NS41NDM5IDc4LjQ1OSA2NS41NDM5IDc4LjQ1OUM2Ni41MjY2IDc3Ljc4MDIgNjcuNTA5MiA3Ny4wMDQzIDY4LjM5MzYgNzYuMjI4NEM3MC4zNTkgNzQuNDgyNyA3Mi4wMjk1IDcyLjU0MzEgNzMuNDA1MiA3MC40MDk1QzczLjUwMzUgNzAuMjE1NSA3My43IDcwLjAyMTUgNzMuNzk4MyA2OS44Mjc2Qzc5LjIwMyA3MC4xMTg1IDgzLjAzNTQgNjYuNTMwMiA4My4wMzU0IDY2LjUzMDJDODIuMTUxIDYwLjkwNTIgNzguOTA4MiA1OC4xODk3IDc4LjIyMDMgNTcuNzA0N0M3OC4yMjAzIDU3LjcwNDcgNzguMjIwMyA1Ny43MDQ3IDc4LjEyMiA1Ny43MDQ3Qzc4LjAyMzggNTcuNzA0NyA3OC4wMjM4IDU3LjcwNDcgNzguMDIzOCA1Ny43MDQ3Qzc4LjAyMzggNTcuNzA0NyA3Ny45MjU1IDU3LjcwNDcgNzcuOTI1NSA1Ny42MDc4Qzc3LjkyNTUgNTcuMzE2OCA3OC4wMjM4IDU2LjkyODkgNzguMDIzOCA1Ni42Mzc5Qzc4LjAyMzggNTYuMDU2IDc4LjEyMiA1NS40NzQxIDc4LjEyMiA1NC43OTUzVjU0LjMxMDNWNTQuMTE2NFY1NC4wMTk0Qzc4LjEyMiA1My44MjU0IDc4LjEyMiA1My45MjI0IDc4LjEyMiA1My44MjU0VjUzLjQzNzVWNTIuOTUyNkM3OC4xMjIgNTIuNzU4NiA3OC4xMjIgNTIuNjYxNiA3OC4xMjIgNTIuNDY3N0M3OC4xMjIgNTIuMjczNyA3OC4xMjIgNTIuMTc2NyA3OC4wMjM4IDUxLjk4MjhMNzcuOTI1NSA1MS40OTc4TDc3LjgyNzIgNTEuMDEyOUM3Ny43MjkgNTAuNDMxIDc3LjYzMDcgNDkuNzUyMiA3Ny40MzQyIDQ5LjE3MDNDNzYuODQ0NiA0Ni43NDU3IDc1Ljk2MDIgNDQuNTE1MSA3NC42ODI3IDQyLjM4MTVDNzMuNDA1MiA0MC4zNDQ4IDcxLjgzMyAzOC41MDIyIDcwLjA2NDIgMzYuOTUwNEM2OC4yOTU0IDM1LjM5ODcgNjYuMzMgMzQuMTM3OSA2NC4yNjY0IDMzLjI2NTFDNjIuMjAyOCAzMi4zOTIyIDYwLjA0MSAzMS43MTM0IDU3Ljg3OTEgMzEuNTE5NEM1Ni43OTgyIDMxLjQyMjQgNTUuNzE3MiAzMS4zMjU0IDU0LjYzNjMgMzEuMzI1NEg1NC4yNDMySDU0LjE0NUM1NC4xNDUgMzEuMzI1NCA1My45NDg0IDMxLjMyNTQgNTQuMDQ2NyAzMS4zMjU0SDUzLjg1MDJINTMuNDU3MUM1My4zNTg4IDMxLjMyNTQgNTMuMTYyMyAzMS4zMjU0IDUzLjA2NCAzMS4zMjU0QzUyLjQ3NDQgMzEuMzI1NCA1MS45ODMxIDMxLjQyMjQgNTEuMzkzNSAzMS41MTk0QzQ5LjIzMTYgMzEuOTA3MyA0Ny4xNjggMzIuNjgzMiA0NS4zOTkyIDMzLjc1QzQzLjYzMDQgMzQuODE2OCA0Mi4wNTgxIDM2LjE3NDYgNDAuNzgwNyAzNy42MjkzQzM5LjUwMzIgMzkuMDg0MSAzOC41MjA1IDQwLjgyOTcgMzcuODMyNyA0Mi40Nzg1QzM3LjE0NDggNDQuMjI0MSAzNi43NTE3IDQ1Ljk2OTggMzYuNjUzNSA0Ny43MTU1QzM2LjY1MzUgNDguMTAzNCAzNi42NTM1IDQ4LjU4ODQgMzYuNjUzNSA0OC45NzYzQzM2LjY1MzUgNDkuMDczMyAzNi42NTM1IDQ5LjE3MDMgMzYuNjUzNSA0OS4yNjcyVjQ5LjY1NTJDMzYuNjUzNSA0OS44NDkxIDM2LjY1MzUgNTAuMDQzMSAzNi42NTM1IDUwLjIzNzFDMzYuNzUxNyA1MS4xMDk5IDM2Ljg1IDUxLjk4MjggMzcuMTQ0OCA1Mi43NTg2QzM3LjYzNjEgNTQuNDA3MyAzOC4zMjQgNTUuODYyMSAzOS4zMDY3IDU3LjAyNTlDNDAuMTkxMSA1OC4yODY2IDQxLjM3MDMgNTkuMjU2NSA0Mi41NDk1IDYwLjEyOTNDNDMuNzI4NyA2MC45MDUyIDQ1LjAwNjEgNjEuNDg3MSA0Ni4yODM2IDYxLjg3NUM0Ny41NjExIDYyLjI2MjkgNDguNzQwMyA2Mi4zNTk5IDQ5LjkxOTUgNjIuMzU5OUM1MC4xMTYgNjIuMzU5OSA1MC4yMTQzIDYyLjM1OTkgNTAuMzEyNiA2Mi4zNTk5QzUwLjQxMDggNjIuMzU5OSA1MC41MDkxIDYyLjM1OTkgNTAuNTA5MSA2Mi4zNTk5SDUwLjcwNTZDNTAuODAzOSA2Mi4zNTk5IDUwLjkwMjIgNjIuMzU5OSA1MS4wOTg3IDYyLjM1OTlINTEuMTk2OUg1MS4yOTUyQzUxLjM5MzUgNjIuMzU5OSA1MS40OTE4IDYyLjM1OTkgNTEuNDkxOCA2Mi4zNTk5QzUxLjY4ODMgNjIuMzU5OSA1MS43ODY2IDYyLjI2MjkgNTEuODg0OCA2Mi4yNjI5QzUxLjk4MzEgNjIuMjYyOSA1Mi4xNzk2IDYyLjE2NTkgNTIuMjc3OSA2Mi4xNjU5QzUyLjU3MjcgNjIuMDY5IDUyLjc2OTIgNjIuMDY5IDUzLjA2NCA2MS45NzJDNTMuNTU1NCA2MS43NzggNTQuMDQ2NyA2MS41ODQxIDU0LjUzOCA2MS4zOTAxQzU1LjAyOTQgNjEuMTk2MSA1NS40MjI0IDYwLjkwNTIgNTUuODE1NSA2MC42MTQyQzU1LjkxMzggNjAuNTE3MiA1Ni4wMTIgNjAuNDIwMyA1Ni4xMTAzIDYwLjQyMDNDNTYuNTAzNCA2MC4xMjkzIDU2LjYwMTYgNTkuNTQ3NCA1Ni4zMDY4IDU5LjE1OTVDNTYuMDEyIDU4Ljc3MTUgNTUuNTIwNyA1OC43NzE2IDU1LjEyNzYgNTguOTY1NUM1NS4wMjk0IDU4Ljk2NTUgNTQuOTMxMSA1OS4wNjI1IDU0LjgzMjggNTkuMTU5NUM1NC41MzggNTkuMzUzNCA1NC4xNDUgNTkuNDUwNCA1My43NTE5IDU5LjU0NzRDNTMuMzU4OCA1OS42NDQ0IDUyLjk2NTggNTkuNzQxNCA1Mi41NzI3IDU5LjgzODRDNTIuMzc2MiA1OS44Mzg0IDUyLjE3OTYgNTkuOTM1MyA1MS45ODMxIDU5LjkzNTNDNTEuODg0OCA1OS45MzUzIDUxLjc4NjYgNTkuOTM1MyA1MS42ODgzIDU5LjkzNTNDNTEuNTkgNTkuOTM1MyA1MS40OTE4IDU5LjkzNTMgNTEuMzkzNSA1OS45MzUzQzUxLjI5NTIgNTkuOTM1MyA1MS4xOTcgNTkuOTM1MyA1MS4wOTg3IDU5LjkzNTNDNTEuMDAwNCA1OS45MzUzIDUwLjgwMzkgNTkuOTM1MyA1MC43MDU2IDU5LjkzNTNDNTAuNzA1NiA1OS45MzUzIDUwLjYwNzMgNTkuOTM1MyA1MC43MDU2IDU5LjkzNTNINTAuNjA3NEM1MC41MDkxIDU5LjkzNTMgNTAuNTA5MSA1OS45MzUzIDUwLjQxMDggNTkuOTM1M0M1MC4zMTI1IDU5LjkzNTMgNTAuMjE0MyA1OS45MzUzIDUwLjExNiA1OS45MzUzQzQ5LjIzMTYgNTkuODM4NCA0OC4yNDkgNTkuNTQ3NCA0Ny4zNjQ2IDU5LjE1OTVDNDYuNDgwMiA1OC43NzE1IDQ1LjU5NTcgNTguMTg5NyA0NC44MDk2IDU3LjUxMDhDNDQuMDIzNSA1Ni44MzE5IDQzLjMzNTYgNTUuOTU5MSA0Mi44NDQzIDU1LjA4NjJDNDIuMzUyOSA1NC4xMTY0IDQxLjk1OTkgNTMuMTQ2NSA0MS43NjMzIDUxLjk4MjhDNDEuNjY1MSA1MS40MDA5IDQxLjY2NTEgNTAuOTE1OSA0MS42NjUxIDUwLjMzNEM0MS42NjUxIDUwLjE0MDEgNDEuNjY1MSA1MC4wNDMxIDQxLjY2NTEgNDkuODQ5MVY0OS43NTIyVjQ5LjY1NTJDNDEuNjY1MSA0OS41NTgyIDQxLjY2NTEgNDkuNDYxMiA0MS42NjUxIDQ5LjQ2MTJDNDEuNjY1MSA0OS4xNzAzIDQxLjc2MzMgNDguODc5MyA0MS43NjMzIDQ4LjU4ODRDNDIuMTU2NCA0Ni4xNjM4IDQzLjQzMzkgNDMuODM2MiA0NS4zMDA5IDQyLjA5MDVDNDUuNzkyMyA0MS43MDI2IDQ2LjI4MzYgNDEuMjE3NyA0Ni43NzQ5IDQwLjkyNjdDNDcuMjY2MyA0MC41Mzg4IDQ3Ljg1NTkgNDAuMjQ3OCA0OC40NDU1IDM5Ljk1NjlDNDkuMDM1MSAzOS42NjU5IDQ5LjYyNDcgMzkuNDcyIDUwLjMxMjYgMzkuMjc4QzUwLjkwMjIgMzkuMDg0IDUxLjU5IDM4Ljk4NzEgNTIuMjc3OSAzOC45ODcxQzUyLjU3MjcgMzguOTg3MSA1Mi45NjU4IDM4Ljk4NzEgNTMuMjYwNiAzOC45ODcxQzUzLjM1ODggMzguOTg3MSA1My40NTcxIDM4Ljk4NzEgNTMuNDU3MSAzOC45ODcxSDUzLjc1MTlINTMuOTQ4NEM1NC4wNDY3IDM4Ljk4NzEgNTMuOTQ4NCAzOC45ODcxIDUzLjk0ODQgMzguOTg3MUg1NC4wNDY3SDU0LjM0MTVDNTUuMDI5NCAzOS4wODQgNTUuODE1NSAzOS4xODEgNTYuNTAzNCAzOS4yNzhDNTcuODc5MSAzOS41NjkgNTkuMjU0OCA0MC4wNTM5IDYwLjUzMjMgNDAuODI5N0M2My4wODcyIDQyLjE4NzUgNjUuMjQ5MSA0NC40MTgxIDY2LjYyNDggNDcuMDM2NkM2Ny4zMTI3IDQ4LjM5NDQgNjcuODA0IDQ5Ljc1MjIgNjguMDAwNiA1MS4yMDY5QzY4LjA5ODggNTEuNTk0OCA2OC4wOTg4IDUxLjk4MjggNjguMDk4OCA1Mi4yNzM3VjUyLjU2NDdWNTIuODU1NkM2OC4wOTg4IDUyLjk1MjYgNjguMDk4OCA1My4wNDk2IDY4LjA5ODggNTMuMTQ2NkM2OC4wOTg4IDUzLjI0MzUgNjguMDk4OCA1My4zNDA1IDY4LjA5ODggNTMuNDM3NVY1My42MzE1VjUzLjkyMjRDNjguMDk4OCA1NC4xMTY0IDY4LjA5ODggNTQuNDA3MyA2OC4wOTg4IDU0LjYwMTNDNjguMDk4OCA1NC45ODkyIDY4LjAwMDYgNTUuMzc3MiA2OC4wMDA2IDU1Ljc2NTFDNjcuOTAyMyA1Ni4xNTMgNjcuOTAyMyA1Ni41NDA5IDY3LjgwNCA1Ni45Mjg5QzY3LjcwNTggNTcuMzE2OCA2Ny42MDc1IDU3LjcwNDcgNjcuNTA5MiA1OC4wOTI3QzY3LjMxMjcgNTguODY4NSA2Ny4wMTc5IDU5LjY0NDQgNjYuNzIzMSA2MC40MjAzQzY2LjEzMzUgNjEuODc1IDY1LjM0NzQgNjMuMzI5NyA2NC4zNjQ3IDY0LjY4NzVDNjIuMzk5NCA2Ny4zMDYgNTkuNzQ2MiA2OS40Mzk3IDU2Ljc5ODIgNzAuNzk3NEM1NS4zMjQyIDcxLjQ3NjMgNTMuNzUxOSA3MS45NjEyIDUyLjA4MTQgNzIuMjUyMkM1MS4yOTUyIDcyLjM0OTEgNTAuNDEwOCA3Mi40NDYxIDQ5LjYyNDcgNzIuNDQ2MUg0OS40MjgySDQ5LjMyOTlINDkuMDM1MUg0OC42NDJINDguNDQ1NUM0OC41NDM4IDcyLjQ0NjEgNDguNDQ1NSA3Mi40NDYxIDQ4LjQ0NTUgNzIuNDQ2MUg0OC4zNDcyQzQ3Ljk1NDIgNzIuNDQ2MSA0Ny40NjI4IDcyLjQ0NjEgNDcuMDY5OCA3Mi4zNDkxQzQ1LjMwMSA3Mi4yNTIyIDQzLjUzMjEgNzEuOTYxMiA0MS44NjE2IDcxLjQ3NjNDNDAuMTkxMSA3MC45OTE0IDM4LjUyMDUgNzAuMzEyNSAzNi45NDgzIDY5LjUzNjZDMzMuODAzNyA2Ny44ODc5IDMxLjA1MjMgNjUuNjU3MyAyOC44OTA0IDYyLjk0MThDMjcuODA5NSA2MS41ODQgMjYuODI2OCA2MC4xMjkzIDI2LjA0MDcgNTguNjc0NkMyNS4yNTQ1IDU3LjEyMjggMjQuNjY0OSA1NS41NzExIDI0LjE3MzYgNTMuOTIyNEMyMy42ODIzIDUyLjI3MzcgMjMuNDg1NyA1MC42MjUgMjMuMjg5MiA0OC45NzYzVjQ4LjY4NTNWNDguNTg4NFY0OC4zOTQ0VjQ4LjI5NzRWNDguMDA2NVY0Ny45MDk1VjQ3LjgxMjVWNDcuNjE4NVY0Ny4yMzA2VjQ3LjEzMzZWNDYuOTM5N0MyMy4yODkyIDQ2Ljc0NTcgMjMuMjg5MiA0Ni41NTE3IDIzLjI4OTIgNDYuMzU3OEMyMy4yODkyIDQ1LjQ4NDkgMjMuMzg3NSA0NC43MDkgMjMuNDg1NyA0My44MzYyQzIzLjU4NCA0Mi45NjM0IDIzLjc4MDUgNDIuMDkwNSAyMy44Nzg4IDQxLjMxNDdDMjQuMDc1MyA0MC40NDE4IDI0LjI3MTkgMzkuNjY1OSAyNC40Njg0IDM4Ljc5MzFDMjQuOTU5NyAzNy4xNDQ0IDI1LjU0OTMgMzUuNDk1NyAyNi4yMzcyIDM0LjA0MDlDMjcuNjEyOSAzMS4wMzQ1IDI5LjQ4IDI4LjMxOSAzMS43NDAxIDI2LjE4NTNDMzIuMzI5NyAyNS42MDM0IDMyLjkxOTMgMjUuMTE4NSAzMy41MDg5IDI0LjYzMzZDMzQuMDk4NSAyNC4xNDg3IDM0LjY4ODEgMjMuNzYwOCAzNS4zNzYgMjMuMjc1OUMzNS45NjU2IDIyLjg4NzkgMzYuNjUzNSAyMi41IDM3LjM0MTMgMjIuMTEyMUMzNy42MzYxIDIxLjkxODEgMzguMDI5MiAyMS44MjExIDM4LjMyNCAyMS42MjcyQzM4LjUyMDUgMjEuNTMwMiAzOC43MTcxIDIxLjQzMzIgMzguODE1MyAyMS40MzMyQzM5LjAxMTkgMjEuMzM2MiAzOS4yMDg0IDIxLjIzOTIgMzkuMzA2NyAyMS4yMzkyQzM5Ljk5NDUgMjAuOTQ4MyA0MC43ODA3IDIwLjY1NzMgNDEuNDY4NSAyMC40NjM0QzQxLjY2NTEgMjAuMzY2NCA0MS44NjE2IDIwLjM2NjQgNDIuMDU4MSAyMC4yNjk0QzQyLjI1NDcgMjAuMTcyNCA0Mi40NTEyIDIwLjE3MjQgNDIuNjQ3OCAyMC4wNzU0QzQzLjA0MDggMTkuOTc4NCA0My40MzM5IDE5Ljg4MTUgNDMuNzI4NyAxOS43ODQ1QzQzLjkyNTIgMTkuNzg0NSA0NC4xMjE3IDE5LjY4NzUgNDQuMzE4MyAxOS42ODc1QzQ0LjUxNDggMTkuNjg3NSA0NC43MTEzIDE5LjU5MDUgNDQuOTA3OSAxOS41OTA1QzQ1LjEwNDQgMTkuNTkwNSA0NS4zMDA5IDE5LjQ5MzUgNDUuNDk3NSAxOS40OTM1SDQ1Ljc5MjNINDYuMDg3MUM0Ni4yODM2IDE5LjQ5MzUgNDYuNDgwMiAxOS4zOTY2IDQ2LjY3NjcgMTkuMzk2NkM0Ni44NzMyIDE5LjM5NjYgNDcuMDY5OCAxOS4zOTY2IDQ3LjM2NDYgMTkuMjk5NkM0Ny41NjExIDE5LjI5OTYgNDcuODU1OSAxOS4yMDI2IDQ4LjA1MjQgMTkuMjAyNkM0OC4xNTA3IDE5LjIwMjYgNDguMzQ3MiAxOS4yMDI2IDQ4LjQ0NTUgMTkuMjAyNkg0OC43NDAzSDQ4LjgzODZINDkuMDM1MUM0OS4yMzE2IDE5LjIwMjYgNDkuNDI4MiAxOS4yMDI2IDQ5LjcyMjkgMTkuMjAyNkg1MC4wMTc4QzUwLjAxNzggMTkuMjAyNiA1MC4xMTYgMTkuMjAyNiA1MC4wMTc4IDE5LjIwMjZINTAuMTE2SDUwLjIxNDNDNTAuNDEwOCAxOS4yMDI2IDUwLjYwNzQgMTkuMjAyNiA1MC44MDM5IDE5LjIwMjZDNTEuNDkxOCAxOS4yMDI2IDUyLjI3NzkgMTkuMjAyNiA1Mi45NjU4IDE5LjIwMjZDNTQuNDM5OCAxOS4yOTk2IDU1LjgxNTUgMTkuMzk2NSA1Ny4yODk1IDE5LjY4NzVDNjAuMDQxIDIwLjE3MjQgNjIuNjk0MiAyMS4wNDUzIDY1LjA1MjYgMjIuMjA5QzY3LjQxMSAyMy4zNzI4IDY5LjU3MjggMjQuNzMwNiA3MS40Mzk5IDI2LjI4MjNDNzEuNTM4MiAyNi4zNzkzIDcxLjYzNjQgMjYuNDc2MyA3MS43MzQ3IDI2LjU3MzNDNzEuODMzIDI2LjY3MDMgNzEuOTMxMiAyNi43NjcyIDcyLjAyOTUgMjYuODY0MkM3Mi4yMjYgMjcuMDU4MiA3Mi40MjI2IDI3LjI1MjIgNzIuNzE3NCAyNy40NDYxQzcyLjkxMzkgMjcuNjQwMSA3My4xMTA0IDI3LjgzNCA3My4zMDcgMjguMDI4QzczLjUwMzUgMjguMjIyIDczLjcgMjguNDE1OSA3My44OTY2IDI4LjYwOTlDNzQuNjgyNyAyOS4zODU4IDc1LjM3MDYgMzAuMjU4NiA3Ni4wNTg0IDMxLjEzMTVDNzcuMzM1OSAzMi43ODAyIDc4LjQxNjggMzQuNTI1OSA3OS4zMDEyIDM2LjA3NzZDNzkuMzk5NSAzNi4xNzQ2IDc5LjM5OTUgMzYuMjcxNSA3OS40OTc4IDM2LjM2ODVDNzkuNTk2IDM2LjQ2NTUgNzkuNTk2IDM2LjU2MjUgNzkuNjk0MyAzNi42NTk1Qzc5Ljc5MjYgMzYuODUzNSA3OS44OTA4IDM3LjA0NzQgNzkuOTg5MSAzNy4yNDE0QzgwLjA4NzQgMzcuNDM1MyA4MC4xODU2IDM3LjYyOTMgODAuMjgzOSAzNy44MjMzQzgwLjM4MjIgMzguMDE3MiA4MC40ODA0IDM4LjIxMTIgODAuNDgwNCAzOC40MDUyQzgwLjc3NTIgMzkuMTgxIDgxLjA3IDM5Ljg1OTkgODEuMjY2NiA0MC41Mzg4QzgxLjY1OTYgNDEuNjA1NiA4MS45NTQ0IDQyLjU3NTQgODIuMTUxIDQzLjQ0ODNDODIuMjQ5MiA0My43MzkyIDgyLjU0NCA0NC4wMzAyIDgyLjkzNzEgNDMuOTMzMkM4My4zMzAyIDQzLjkzMzIgODMuNjI1IDQzLjY0MjIgODMuNjI1IDQzLjI1NDNDODQuMTE2MyA0MS45OTM1IDg0LjAxOCA0MC45MjY3IDgzLjkxOTggMzkuNjY1OVoiLz4mI3hhOzxkZWZzPiYjeGE7PGxpbmVhckdyYWRpZW50IGdyYWRpZW50VW5pdHM9InVzZXJTcGFjZU9uVXNlIiB5Mj0iMjcuOTU2IiB4Mj0iNDIuMDY5MSIgeTE9IjExMC4yOSIgeDE9IjQyLjA2OTEiIGlkPSJwYWludDBfbGluZWFyIj4mI3hhOzxzdG9wIHN0b3AtY29sb3I9IiNGRkYxMDAiLz4mI3hhOzxzdG9wIHN0b3AtY29sb3I9IiNGMDVBMjgiIG9mZnNldD0iMSIvPiYjeGE7PC9saW5lYXJHcmFkaWVudD4mI3hhOzwvZGVmcz4mI3hhOzwvc3ZnPg==;" parent="1" vertex="1">
          <mxGeometry x="648" y="197" width="56" height="60" as="geometry" />
        </mxCell>
        <mxCell id="4lTlK-eCGsVboTaURag3-32" value="OAuth 2.0 Client" style="text;strokeColor=none;align=center;fillColor=none;html=1;verticalAlign=middle;whiteSpace=wrap;rounded=0;" parent="1" vertex="1">
          <mxGeometry x="850" y="214.5" width="105" height="25" as="geometry" />
        </mxCell>
        <mxCell id="uEvJGxtLssJ3_L7rwm59-1" value="OAuth 2.0 /&lt;br&gt;Open ID Connect" style="text;strokeColor=none;align=center;fillColor=none;html=1;verticalAlign=middle;whiteSpace=wrap;rounded=0;" vertex="1" parent="1">
          <mxGeometry x="733" y="287" width="127" height="25" as="geometry" />
        </mxCell>
        <mxCell id="uEvJGxtLssJ3_L7rwm59-2" value="OAuth 2.0 /&lt;br&gt;Open ID Connect" style="text;strokeColor=none;align=center;fillColor=none;html=1;verticalAlign=middle;whiteSpace=wrap;rounded=0;" vertex="1" parent="1">
          <mxGeometry x="511" y="347" width="127" height="25" as="geometry" />
        </mxCell>
        <mxCell id="uEvJGxtLssJ3_L7rwm59-4" value="&lt;blockquote style=&quot;margin: 0 0 0 40px; border: none; padding: 0px;&quot;&gt;&lt;b style=&quot;background-color: initial;&quot;&gt;&lt;font style=&quot;font-size: 14px;&quot;&gt;LinkerdViz&lt;/font&gt;&lt;/b&gt;&lt;/blockquote&gt;&lt;blockquote style=&quot;margin: 0 0 0 40px; border: none; padding: 0px;&quot;&gt;&lt;b style=&quot;background-color: initial;&quot;&gt;&lt;font style=&quot;font-size: 14px;&quot;&gt;UI&lt;/font&gt;&lt;/b&gt;&lt;br&gt;&lt;/blockquote&gt;" style="rounded=1;whiteSpace=wrap;html=1;" vertex="1" parent="1">
          <mxGeometry x="429" y="471.72" width="130" height="80" as="geometry" />
        </mxCell>
        <mxCell id="uEvJGxtLssJ3_L7rwm59-6" value="" style="shape=image;imageAspect=0;aspect=fixed;verticalLabelPosition=bottom;verticalAlign=top;image=data:image/svg+xml,PHN2ZyB4bWxucz0iaHR0cDovL3d3dy53My5vcmcvMjAwMC9zdmciIHZpZXdCb3g9Ii0xLjIxIDEyLjI5IDUwNC45MiA0NjkuNDIiIHJvbGU9ImltZyI+PHN0eWxlPnN2ZyB7ZW5hYmxlLWJhY2tncm91bmQ6bmV3IDAgMCA1MDAgNTAwfTwvc3R5bGU+PHN0eWxlPi5zdDJ7ZmlsbDojMmJlZGE3fTwvc3R5bGU+PGxpbmVhckdyYWRpZW50IGdyYWRpZW50VW5pdHM9InVzZXJTcGFjZU9uVXNlIiB5Mj0iMzA4LjgiIHkxPSIxMDYuNTE1IiB4Mj0iNDc3LjIyMSIgeDE9IjQ3Ny4yMjEiIGlkPSJTVkdJRF8xXyI+PHN0b3Agc3RvcC1jb2xvcj0iIzJiZWRhNyIgb2Zmc2V0PSIwIi8+PHN0b3Agc3RvcC1jb2xvcj0iIzAxOGFmZCIgb2Zmc2V0PSIxIi8+PC9saW5lYXJHcmFkaWVudD48cGF0aCBkPSJNNDYwLjQgMTA2LjV2MTgyLjhsMzMuNyAxOS41VjEyNnoiIGZpbGw9InVybCgjU1ZHSURfMV8pIi8+PGxpbmVhckdyYWRpZW50IGdyYWRpZW50VW5pdHM9InVzZXJTcGFjZU9uVXNlIiB5Mj0iMzA4LjgxMiIgeTE9IjEwNi41MiIgeDI9IjI1LjQ1OSIgeDE9IjI1LjQ1OSIgaWQ9IlNWR0lEXzJfIj48c3RvcCBzdG9wLWNvbG9yPSIjMmJlZGE3IiBvZmZzZXQ9IjAiLz48c3RvcCBzdG9wLWNvbG9yPSIjMDE4YWZkIiBvZmZzZXQ9IjEiLz48L2xpbmVhckdyYWRpZW50PjxwYXRoIGQ9Ik04LjYgMzA4LjhsMzMuNy0xOS41VjEwNi41TDguNiAxMjZ6IiBmaWxsPSJ1cmwoI1NWR0lEXzJfKSIvPjxwYXRoIGNsYXNzPSJzdDIiIGQ9Ik0xNzMuOCAzMDdsMTU1LjEgODkuNXYtMzguOWwtMTQ1LjItODMuOC05LjkgNS43em0xNjQgMTQxLjRsLTE2NC05NC43djM4LjlsNDMuOCAyNS4zLTUyLjcgMzAuNGMtMy41IDItMy41IDcuMiAwIDkuMmwyNS43IDE0LjkgNjAuNy0zNSA2MC43IDM1IDI1LjctMTQuOWMzLjYtMS45IDMuNi03LjEuMS05LjF6Ii8+PGxpbmVhckdyYWRpZW50IGdyYWRpZW50VW5pdHM9InVzZXJTcGFjZU9uVXNlIiB5Mj0iMzgyLjkzOCIgeTE9IjE5Ni4wNjIiIHgyPSI0NzcuMjIxIiB4MT0iNDc3LjIyMSIgaWQ9IlNWR0lEXzNfIj48c3RvcCBzdG9wLWNvbG9yPSIjMmJlZGE3IiBvZmZzZXQ9IjAiLz48c3RvcCBzdG9wLWNvbG9yPSIjMDE4YWZkIiBvZmZzZXQ9IjEiLz48L2xpbmVhckdyYWRpZW50PjxwYXRoIGQ9Ik00NjAuNCAyMTUuNXYxNjIuMWMwIDQuMSA0LjQgNi43IDggNC42bDIzLjEtMTMuM2MxLjYtLjkgMi43LTIuNyAyLjctNC42VjE5Ni4xbC0zMy44IDE5LjR6IiBmaWxsPSJ1cmwoI1NWR0lEXzNfKSIvPjxsaW5lYXJHcmFkaWVudCBncmFkaWVudFVuaXRzPSJ1c2VyU3BhY2VPblVzZSIgeTI9IjQyNS43NiIgeTE9IjIzOC44ODQiIHgyPSI0MDMuMDQ4IiB4MT0iNDAzLjA0OCIgaWQ9IlNWR0lEXzRfIj48c3RvcCBzdG9wLWNvbG9yPSIjMmJlZGE3IiBvZmZzZXQ9IjAiLz48c3RvcCBzdG9wLWNvbG9yPSIjMDE4YWZkIiBvZmZzZXQ9IjEiLz48L2xpbmVhckdyYWRpZW50PjxwYXRoIGQ9Ik0zOTQuMiA0MjVsMjEuNy0xMi42YzIuNS0xLjQgNC00LjEgNC02LjlWMjM4LjlsLTMzLjcgMTkuNXYxNjIuMWMwIDQgNC40IDYuNiA4IDQuNXoiIGZpbGw9InVybCgjU1ZHSURfNF8pIi8+PGxpbmVhckdyYWRpZW50IGdyYWRpZW50VW5pdHM9InVzZXJTcGFjZU9uVXNlIiB5Mj0iNDcyLjQ2OSIgeTE9IjI4MS43MDQiIHgyPSIzMjguODc3IiB4MT0iMzI4Ljg3NyIgaWQ9IlNWR0lEXzVfIj48c3RvcCBzdG9wLWNvbG9yPSIjMmJlZGE3IiBvZmZzZXQ9IjAiLz48c3RvcCBzdG9wLWNvbG9yPSIjMDE4YWZkIiBvZmZzZXQ9IjEiLz48L2xpbmVhckdyYWRpZW50PjxwYXRoIGQ9Ik0zMTIgNDcyLjVsMzEuMS0xNy45YzEuNi0uOSAyLjctMi43IDIuNy00LjZWMjgxLjdMMzEyIDMwMS4ydjE3MS4zeiIgZmlsbD0idXJsKCNTVkdJRF81XykiLz48bGluZWFyR3JhZGllbnQgZ3JhZGllbnRVbml0cz0idXNlclNwYWNlT25Vc2UiIHkyPSI0NzIuNDY2IiB5MT0iMjgxLjcwNCIgeDI9IjE3My44MiIgeDE9IjE3My44MiIgaWQ9IlNWR0lEXzZfIj48c3RvcCBzdG9wLWNvbG9yPSIjMmJlZGE3IiBvZmZzZXQ9IjAiLz48c3RvcCBzdG9wLWNvbG9yPSIjMDE4YWZkIiBvZmZzZXQ9IjEiLz48L2xpbmVhckdyYWRpZW50PjxwYXRoIGQ9Ik0xNTkuNiA0NTQuNWwzMS4xIDE3LjlWMzAxLjJMMTU3IDI4MS43djE2OC4yYzAgMS45IDEgMy43IDIuNiA0LjZ6IiBmaWxsPSJ1cmwoI1NWR0lEXzZfKSIvPjxsaW5lYXJHcmFkaWVudCBncmFkaWVudFVuaXRzPSJ1c2VyU3BhY2VPblVzZSIgeTI9IjQyNS43NiIgeTE9IjIzOC44ODMiIHgyPSI5OS42NDkiIHgxPSI5OS42NDkiIGlkPSJTVkdJRF83XyI+PHN0b3Agc3RvcC1jb2xvcj0iIzJiZWRhNyIgb2Zmc2V0PSIwIi8+PHN0b3Agc3RvcC1jb2xvcj0iIzAxOGFmZCIgb2Zmc2V0PSIxIi8+PC9saW5lYXJHcmFkaWVudD48cGF0aCBkPSJNODYuOCA0MTIuNWwyMS43IDEyLjZjMy41IDIgOC0uNSA4LTQuNlYyNTguM2wtMzMuNy0xOS41djE2Ni43YzAgMi45IDEuNSA1LjYgNCA3eiIgZmlsbD0idXJsKCNTVkdJRF83XykiLz48bGluZWFyR3JhZGllbnQgZ3JhZGllbnRVbml0cz0idXNlclNwYWNlT25Vc2UiIHkyPSIzODIuOTM2IiB5MT0iMTk2LjA1OSIgeDI9IjI1LjQ3OCIgeDE9IjI1LjQ3OCIgaWQ9IlNWR0lEXzhfIj48c3RvcCBzdG9wLWNvbG9yPSIjMmJlZGE3IiBvZmZzZXQ9IjAiLz48c3RvcCBzdG9wLWNvbG9yPSIjMDE4YWZkIiBvZmZzZXQ9IjEiLz48L2xpbmVhckdyYWRpZW50PjxwYXRoIGQ9Ik0xMi42IDM2OS43bDIxLjcgMTIuNmMzLjUgMiA4LS41IDgtNC42VjIxNS41TDguNiAxOTYuMXYxNjYuN2MwIDIuOCAxLjUgNS40IDQgNi45eiIgZmlsbD0idXJsKCNTVkdJRF84XykiLz48cGF0aCBjbGFzcz0ic3QyIiBkPSJNNDk0LjEgMTI2bC0zMy43LTE5LjUtNjAuNyAzNS00MC40LTIzLjNMNDEyIDg3LjhjMy41LTIgMy41LTcuMiAwLTkuMkwzOTAuMiA2NmMtMi41LTEuNC01LjUtMS40LTggMGwtNTYuNyAzMi43LTQwLjQtMjMuM0wzMzcuOCA0NWMzLjUtMiAzLjUtNy4yIDAtOS4yTDMxNiAyMy4yYy0yLjUtMS40LTUuNS0xLjQtOCAwbC01Ni43IDMyLjctNTYuNy0zMi43Yy0yLjUtMS40LTUuNS0xLjQtOCAwbC0yMS44IDEyLjZjLTMuNSAyLTMuNSA3LjIgMCA5LjJsMjk1LjQgMTcwLjYgMzMuNy0xOS41LTYwLjctMzUgNjAuOS0zNS4xek0xMTIuNSA2Nkw5MC44IDc4LjZjLTMuNSAyLTMuNSA3LjIgMCA5LjJsMjk1LjQgMTcwLjYgMzMuNy0xOS41TDEyMC41IDY2Yy0yLjUtMS40LTUuNS0xLjQtOCAwek04LjYgMTI2bDYwLjcgMzUtNjAuNyAzNS4xIDMzLjggMTkuNCA2MC42LTM1IDQwLjUgMjMuNC02MC43IDM1IDMzLjcgMTkuNSA2MC43LTM1LjEgNDAuNCAyMy40LTYwLjcgMzUgMzMuOCAxOS41IDYwLjYtMzUuMSA2MC43IDM1LjEgMzMuNy0xOS41TDQyLjMgMTA2LjV6Ii8+PC9zdmc+;" vertex="1" parent="1">
          <mxGeometry x="439" y="497" width="37.27" height="34.72" as="geometry" />
        </mxCell>
        <mxCell id="uEvJGxtLssJ3_L7rwm59-11" value="&lt;span style=&quot;font-size: 14px;&quot;&gt;&lt;b&gt;&amp;nbsp;....&lt;/b&gt;&lt;/span&gt;" style="rounded=1;whiteSpace=wrap;html=1;" vertex="1" parent="1">
          <mxGeometry x="573.65" y="471" width="96.35" height="80" as="geometry" />
        </mxCell>
        <mxCell id="uEvJGxtLssJ3_L7rwm59-13" value="" style="shape=curlyBracket;whiteSpace=wrap;html=1;rounded=1;flipH=1;labelPosition=right;verticalLabelPosition=middle;align=left;verticalAlign=middle;rotation=90;strokeColor=#0000CC;" vertex="1" parent="1">
          <mxGeometry x="384.97" y="307.76" width="20" height="549" as="geometry" />
        </mxCell>
        <mxCell id="uEvJGxtLssJ3_L7rwm59-14" value="&lt;font color=&quot;#0000cc&quot;&gt;Services without built-in authentication&lt;/font&gt;" style="text;strokeColor=none;align=center;fillColor=none;html=1;verticalAlign=middle;whiteSpace=wrap;rounded=0;" vertex="1" parent="1">
          <mxGeometry x="275.5" y="597" width="250.5" height="30" as="geometry" />
        </mxCell>
        <mxCell id="uEvJGxtLssJ3_L7rwm59-15" value="" style="shape=curlyBracket;whiteSpace=wrap;html=1;rounded=1;flipH=1;labelPosition=right;verticalLabelPosition=middle;align=left;verticalAlign=middle;rotation=-90;fontColor=#0000CC;" vertex="1" parent="1">
          <mxGeometry x="723" y="52.5" width="20" height="214.5" as="geometry" />
        </mxCell>
        <mxCell id="uEvJGxtLssJ3_L7rwm59-16" value="Services with built-in authentication" style="text;strokeColor=none;align=center;fillColor=none;html=1;verticalAlign=middle;whiteSpace=wrap;rounded=0;fontColor=#0000CC;" vertex="1" parent="1">
          <mxGeometry x="607.75" y="127" width="250.5" height="30" as="geometry" />
        </mxCell>
        <mxCell id="uEvJGxtLssJ3_L7rwm59-17" value="Ingress Controller" style="text;strokeColor=none;align=center;fillColor=none;html=1;verticalAlign=middle;whiteSpace=wrap;rounded=0;fontStyle=1" vertex="1" parent="1">
          <mxGeometry x="166" y="214.5" width="105" height="30" as="geometry" />
        </mxCell>
        <mxCell id="uEvJGxtLssJ3_L7rwm59-18" style="edgeStyle=orthogonalEdgeStyle;rounded=0;orthogonalLoop=1;jettySize=auto;html=1;" edge="1" parent="1">
          <mxGeometry relative="1" as="geometry">
            <mxPoint x="389" y="189" as="targetPoint" />
            <mxPoint x="389" y="119" as="sourcePoint" />
          </mxGeometry>
        </mxCell>
        <mxCell id="uEvJGxtLssJ3_L7rwm59-19" value="HTTPS" style="text;strokeColor=none;align=center;fillColor=none;html=1;verticalAlign=middle;whiteSpace=wrap;rounded=0;" vertex="1" parent="1">
          <mxGeometry x="394.13" y="132" width="95.87" height="25" as="geometry" />
        </mxCell>
        <mxCell id="uEvJGxtLssJ3_L7rwm59-20" value="" style="shape=image;verticalLabelPosition=bottom;labelBackgroundColor=default;verticalAlign=top;aspect=fixed;imageAspect=0;image=https://cdn4.iconfinder.com/data/icons/modern-technologies-1/32/technology_Browser_global_network_planet_webpage_globe-64.png;" vertex="1" parent="1">
          <mxGeometry x="355" y="40" width="64" height="64" as="geometry" />
        </mxCell>
        <mxCell id="uEvJGxtLssJ3_L7rwm59-21" value="HTTP Browser" style="text;strokeColor=none;align=center;fillColor=none;html=1;verticalAlign=middle;whiteSpace=wrap;rounded=0;fontStyle=1" vertex="1" parent="1">
          <mxGeometry x="243" y="57" width="105" height="30" as="geometry" />
        </mxCell>
      </root>
    </mxGraphModel>
  </diagram>
</mxfile>
